<svg width="23" height="22" viewBox="0 0 23 22" fill="none" xmlns="http://www.w3.org/2000/svg">
<path d="M19.1704 21.3736H4.02944C2.89992 21.3736 1.98096 20.4547 1.98096 19.3251V8.54748C1.98096 8.15399 2.29994 7.83496 2.69347 7.83496C3.087 7.83496 3.40599 8.15399 3.40599 8.54748V19.3251C3.40599 19.6689 3.68565 19.9486 4.02944 19.9486H19.1704C19.5142 19.9486 19.7938 19.6689 19.7938 19.3251V8.54748C19.7938 8.15399 20.1128 7.83496 20.5063 7.83496C20.8999 7.83496 21.2188 8.15399 21.2188 8.54748V19.3251C21.2188 20.4547 20.2999 21.3736 19.1704 21.3736Z" fill="#040404"/>
<path d="M22.2876 11.0413C22.1053 11.0413 21.923 10.9718 21.7839 10.8326L12.9224 1.9713C12.1932 1.24205 11.0067 1.24205 10.2774 1.9713L1.41605 10.8327C1.13781 11.1109 0.686655 11.1109 0.408418 10.8327C0.130137 10.5544 0.130137 10.1033 0.408418 9.82504L9.26978 0.963631C10.5546 -0.32121 12.6453 -0.32121 13.9301 0.963631L22.7914 9.825C23.0697 10.1033 23.0697 10.5544 22.7914 10.8326C22.6524 10.9718 22.47 11.0413 22.2876 11.0413Z" fill="#040404"/>
<path d="M14.4502 21.374H8.75011C8.35658 21.374 8.0376 21.055 8.0376 20.6615V14.3379C8.0376 13.1102 9.03645 12.1113 10.2642 12.1113H12.9361C14.1639 12.1113 15.1627 13.1102 15.1627 14.3379V20.6615C15.1627 21.055 14.8438 21.374 14.4502 21.374ZM9.46263 19.949H13.7377V14.3379C13.7377 13.896 13.3781 13.5364 12.9361 13.5364H10.2642C9.82222 13.5364 9.46263 13.896 9.46263 14.3379V19.949Z" fill="#040404"/>
</svg>
