<svg width="52" height="52" viewBox="0 0 52 52" fill="none" xmlns="http://www.w3.org/2000/svg">
<circle cx="26" cy="26" r="26" fill="#FFF6E3"/>
<g clip-path="url(#clip0_353_1112)">
<path d="M35.6484 16.6562H31.7271L32.101 14.5234H33.5156C33.9363 14.5234 34.2773 14.1824 34.2773 13.7617C34.2773 13.341 33.9363 13 33.5156 13H31.4613C31.0913 13 30.7749 13.2658 30.711 13.6302L30.1805 16.6562H16.3516C15.9309 16.6562 15.5898 16.9973 15.5898 17.418V21.0742C15.5898 21.4949 15.9309 21.8359 16.3516 21.8359H17.6464C17.8516 23.5199 17.9961 24.7043 18.1593 26.0421C21.4429 26.7925 21.9981 28.8438 26 28.8438C29.9943 28.8438 30.5649 26.7917 33.8407 26.0415C33.9493 25.1512 34.2449 22.7269 34.3536 21.8359H35.6484C36.0691 21.8359 36.4102 21.4949 36.4102 21.0742V17.418C36.4102 16.9973 36.0691 16.6562 35.6484 16.6562Z" fill="#F5BA3C"/>
<path d="M26.0002 30.3677C21.8463 30.3677 20.7796 28.4407 18.3584 27.6729L19.2869 35.2842C19.2869 35.2842 19.2869 35.2843 19.2869 35.2843L19.6581 38.331C19.7047 38.7132 20.0292 39.0005 20.4142 39.0005H31.5861C31.9711 39.0005 32.2956 38.7132 32.3422 38.331L32.4668 37.309C32.4668 37.309 33.642 27.672 33.642 27.6719C31.2243 28.4392 30.1539 30.3677 26.0002 30.3677ZM30.9116 37.4771H21.0888L20.9031 35.9537H31.0973C31.0284 36.5186 30.9746 36.9603 30.9116 37.4771Z" fill="#F5BA3C"/>
</g>
<defs>
<clipPath id="clip0_353_1112">
<rect width="26" height="26" fill="white" transform="translate(13 13)"/>
</clipPath>
</defs>
</svg>
