<svg width="52" height="52" viewBox="0 0 52 52" fill="none" xmlns="http://www.w3.org/2000/svg">
<circle cx="26" cy="26" r="26" fill="#FFE9E5"/>
<path d="M27.0713 20.2521C27.5354 19.4771 28.2697 18.3679 29.1973 17.3036H29.1983C29.9839 16.4004 31.5223 15.2411 31.5223 15.2411C31.7535 15.0663 31.7287 14.823 31.4658 14.7005L29.6064 13.8316C29.3435 13.7085 28.9861 13.7983 28.8119 14.03C28.8119 14.03 27.4366 16.0029 25.818 20.2024C20.8133 17.9387 16.0562 21.1094 16.0562 26.6229C16.0562 32.3819 20.487 41.13 26.479 38.4894C32.7898 41.2203 36.905 32.3825 36.905 26.6229C36.905 21.0619 32.6288 17.8015 27.0713 20.2521Z" fill="#F8644A"/>
<path d="M25.9503 18.3869C26.2396 18.3626 26.4951 18.1066 26.5184 17.8178C26.5184 17.8178 26.7042 15.5657 25.1347 13.9947C23.5604 12.4231 21.3125 12.6105 21.3125 12.6105C21.0232 12.6347 20.7677 12.8908 20.7439 13.1796C20.7439 13.1796 20.5549 15.4327 22.1266 17.0043C23.6971 18.5743 25.9503 18.3869 25.9503 18.3869Z" fill="#F8644A"/>
</svg>
