<svg width="52" height="52" viewBox="0 0 52 52" fill="none" xmlns="http://www.w3.org/2000/svg">
<circle cx="26" cy="26" r="26" fill="#F3EFFA"/>
<path d="M34.7526 22.0406C32.4919 22.9826 30.1364 23.5781 27.7227 23.8204L28.8605 21.8495L32.7407 22.0825C33.1717 22.1083 33.5421 21.7799 33.5679 21.3489C33.5938 20.918 33.2654 20.5476 32.8344 20.5217L29.7346 20.3356L30.4241 19.1414L34.3043 19.3743C34.7353 19.4002 35.1057 19.0718 35.1315 18.6408C35.1574 18.2099 34.829 17.8395 34.398 17.8136L31.2982 17.6275L32.1642 16.1276C33.0277 14.6319 34.9402 14.1194 36.4359 14.9829C37.9316 15.8465 38.4441 17.759 37.5805 19.2547L36.3584 21.3715L34.7526 22.0406Z" fill="#AE80FF"/>
<path d="M25.2309 23.9455C24.1935 23.9455 23.1644 23.8814 22.1462 23.7542C22.1188 23.5612 22.1038 23.3642 22.1038 23.1637C22.1038 20.8609 23.9705 18.9941 26.2733 18.9941C27.0402 18.9941 27.7581 19.2021 28.3755 19.5633L25.8498 23.9379C25.6439 23.9429 25.4376 23.9455 25.2309 23.9455Z" fill="#AE80FF"/>
<path d="M21.0919 20.7103C20.5142 19.1826 20.4084 18.033 20.4069 18.0154C20.3703 17.5852 19.9917 17.2672 19.5617 17.3026C19.1315 17.3392 18.8124 17.7176 18.849 18.1478C18.8585 18.2601 19.0756 20.6197 20.5412 23.2166C20.5421 23.3119 20.546 23.4066 20.5515 23.5008C18.8997 23.183 17.2813 22.6958 15.709 22.0406L14.768 21.6486C14.8916 21.3455 15.064 21.063 15.2801 20.8138C14.2188 20.3432 13.504 19.2865 13.504 18.0816C13.504 16.4291 14.8483 15.0848 16.5008 15.0848C16.7626 15.0848 17.0218 15.1199 17.2756 15.1895C17.6299 13.9128 18.791 13 20.1491 13C21.4719 13 22.617 13.8623 23.0029 15.0984C23.095 15.0893 23.1859 15.0848 23.2763 15.0848C24.7053 15.0848 25.9032 16.0905 26.2012 17.4311C23.9477 17.459 22.0032 18.7934 21.0919 20.7103Z" fill="#AE80FF"/>
<path d="M15.1076 23.4841C18.3318 24.8276 21.7377 25.5087 25.2307 25.5087C28.7237 25.5087 32.1296 24.8276 35.3539 23.4841C35.9023 23.2556 36.4952 23.6982 36.4319 24.289C36.1714 26.7199 35.2287 35.6131 35.0178 37.589C34.8902 38.7839 33.8876 39.6851 32.6857 39.6851H17.7758C16.5738 39.6851 15.5713 38.7839 15.4437 37.5889C15.2327 35.6131 14.29 26.7198 14.0296 24.289C13.9662 23.6982 14.5591 23.2556 15.1076 23.4841ZM19.237 34.4732C19.237 34.905 19.587 35.255 20.0188 35.255H30.4426C30.8744 35.255 31.2244 34.905 31.2244 34.4732V30.3037C31.2244 29.8719 30.8744 29.5219 30.4426 29.5219H20.0188C19.587 29.5219 19.237 29.8719 19.237 30.3037V34.4732Z" fill="#AE80FF"/>
<path d="M29.6611 31.085H20.8009V33.6909H29.6611V31.085Z" fill="#AE80FF"/>
</svg>
