<svg width="52" height="52" viewBox="0 0 52 52" fill="none" xmlns="http://www.w3.org/2000/svg">
<circle cx="26" cy="26" r="26" fill="#DCF4F5"/>
<path d="M31.978 13.7617C31.978 13.341 31.637 13 31.2163 13H28.1694C27.7488 13 27.4077 13.341 27.4077 13.7617V15.082H31.978V13.7617Z" fill="#0CD4DC"/>
<path d="M18.5485 35.0034C17.8778 34.6077 17.2587 34.1281 16.7086 33.578C16.6685 33.5379 16.6293 33.4969 16.5899 33.4561C15.6829 33.9079 14.8633 34.5393 14.1849 35.3256C13.9384 35.6115 13.9384 36.0349 14.1849 36.3208C15.654 38.0237 17.7854 39.0004 20.0325 39.0004C20.7028 39.0004 21.3625 38.9129 21.9976 38.7457C21.2002 37.9043 20.5491 36.941 20.0656 35.8984L18.5485 35.0034Z" fill="#0CD4DC"/>
<path d="M19.3228 33.6909C19.163 32.9578 19.0796 32.2035 19.0796 31.4393C19.0796 29.7098 19.5007 28.0418 20.2689 26.5588C19.0388 25.9447 17.6531 25.6637 16.2496 25.7671C15.873 25.7948 15.5736 26.0942 15.5459 26.4708C15.3806 28.7138 16.1971 30.9115 17.786 32.5004C18.2508 32.9652 18.7679 33.3635 19.3228 33.6909Z" fill="#0CD4DC"/>
<path d="M34.0644 23.4685C32.8431 22.7974 32.1425 21.6132 32.1425 20.2197V18.1261C32.5336 18.0939 32.8411 17.7669 32.8411 17.3676C32.8411 16.9675 32.5324 16.6401 32.1404 16.6089C32.1402 16.6069 27.245 16.6069 27.2449 16.6089C26.8529 16.6401 26.5443 16.9675 26.5443 17.3676C26.5443 17.7669 26.8517 18.0939 27.2428 18.1261V20.2197C27.2428 21.6132 26.5423 22.7974 25.3209 23.4685C23.3217 24.5671 21.8429 26.3523 21.1128 28.4379H38.2725C37.5425 26.3523 36.0636 24.567 34.0644 23.4685Z" fill="#0CD4DC"/>
<path d="M38.6611 29.9609H20.7246C20.6448 30.4451 20.603 30.9391 20.603 31.4393C20.603 34.3819 22.0381 37.1558 24.4419 38.8597C24.5707 38.9509 24.7245 39 24.8824 39H34.5033C34.6611 39 34.815 38.951 34.9438 38.8597C37.3475 37.1558 38.7826 34.3819 38.7826 31.4393C38.7827 30.9391 38.7409 30.4451 38.6611 29.9609Z" fill="#0CD4DC"/>
</svg>
