<svg width="52" height="52" viewBox="0 0 52 52" fill="none" xmlns="http://www.w3.org/2000/svg">
<circle cx="26" cy="26" r="26" fill="#E6F2EA"/>
<path d="M18.0063 25.8811C18.0063 25.1537 18.222 24.4542 18.6229 23.8619C18.4912 23.4371 18.4231 22.9919 18.4231 22.5507C18.4231 20.6482 19.6231 18.9907 21.3627 18.3685C21.5179 16.9499 22.4284 15.7292 23.7114 15.145C23.052 14.0784 22.0111 13.4531 21.0516 13.6085C20.3581 13.7211 19.7835 14.1919 19.4459 14.9025C18.8381 14.6234 18.2061 14.577 17.6519 14.7718C17.0521 14.9829 16.5862 15.4342 16.3047 16.0768C15.9312 16.9278 15.9308 18.0231 16.2919 19.0645C15.8052 19.3983 15.4415 19.889 15.2289 20.5042C14.8713 21.5372 14.9907 22.7835 15.556 23.9251C15.6178 24.0496 15.6855 24.1733 15.7593 24.2947C15.2285 24.6397 14.8311 25.1511 14.6181 25.7751C14.2795 26.7653 14.4294 27.932 15.0291 28.9752C15.3045 29.4544 15.6691 29.8885 16.0939 30.2453C15.952 30.8389 16.0594 31.4912 16.405 32.0816C16.8881 32.9053 17.7584 33.464 18.6883 33.558C19.9338 35.8969 21.4392 37.0902 23.5921 38.1241C21.0343 35.1029 19.612 32.6006 19.532 28.8272C18.5906 28.1555 18.0063 27.0519 18.0063 25.8811Z" fill="#28B446"/>
<path d="M37.6862 22.4308C37.7216 20.711 36.7108 19.164 35.1444 18.4954C34.9159 17.0278 33.7323 15.8809 32.2613 15.6866C32.2481 15.5404 32.2202 15.3946 32.1783 15.2507C31.9188 14.3656 31.1378 13.6992 30.2357 13.5923C29.6457 13.5221 29.0879 13.6701 28.6269 13.9938C28.2159 13.7222 27.7372 13.5755 27.2466 13.5755C25.983 13.5755 24.9328 14.5083 24.7499 15.721C23.305 16.0125 22.2217 17.299 22.2217 18.8041C22.2217 18.8849 22.2252 18.9657 22.2314 19.0478C20.5563 19.349 19.3055 20.8033 19.3055 22.5509C19.3055 23.0561 19.4147 23.5569 19.6242 24.0176C19.1535 24.5206 18.8892 25.1826 18.8892 25.8812C18.8892 26.9253 19.4894 27.8721 20.4118 28.3279C20.3711 32.3304 21.8301 34.7603 24.6765 38.0346L24.8369 38.217L24.8661 38.2501C25.2975 38.7337 25.9185 38.9996 26.6155 38.9996C26.7361 38.9996 26.855 38.9894 26.9721 38.9744L26.821 38.6811C25.8712 36.4239 25.2882 34.4198 24.9629 32.6383C23.7373 32.2611 23.2073 31.2824 23.1839 31.2374C23.0699 31.0219 23.1534 30.7542 23.3691 30.6407C23.5835 30.5272 23.85 30.6094 23.9653 30.8236C23.9817 30.8541 24.2389 31.3063 24.8016 31.6145C24.6478 30.4588 24.6031 29.4033 24.6478 28.452C24.6424 28.4039 24.6447 28.3566 24.6557 28.308C24.7326 26.9482 24.981 25.7973 25.309 24.8328C23.8199 23.9456 23.6361 22.2939 23.7642 21.4923C23.8027 21.2516 24.0299 21.0851 24.2703 21.1257C24.5112 21.1642 24.6752 21.3898 24.6376 21.6301C24.6265 21.7012 24.4281 23.1661 25.6338 23.9902C25.6939 23.8511 25.7545 23.7128 25.8172 23.5834C26.9797 21.1862 28.6411 19.9934 29.2842 19.5999C29.2828 18.7153 29.8632 17.9468 29.8906 17.9111C30.0386 17.7172 30.3171 17.681 30.5098 17.8285C30.7034 17.9764 30.7405 18.2533 30.5929 18.4468C30.4943 18.5775 30.3007 18.903 30.2141 19.2611C31.232 19.1459 32.2255 19.72 32.2759 19.75C32.4868 19.8741 32.5562 20.1449 32.4324 20.3546C32.3497 20.4942 32.2021 20.5719 32.0514 20.5719C31.9749 20.5719 31.898 20.5525 31.8278 20.511C31.5197 20.3312 30.5818 19.9342 29.9392 20.2416C29.8273 20.2985 29.0751 20.7031 28.219 21.5956C29.9723 21.468 31.1918 21.9882 31.2532 22.0147C31.4764 22.1132 31.578 22.3738 31.4804 22.5968C31.4074 22.762 31.2452 22.8609 31.0751 22.8609C31.0163 22.8609 30.9562 22.8494 30.8987 22.8238C30.8656 22.8097 29.3703 22.1905 27.3885 22.6026C26.9916 23.1603 26.6097 23.829 26.2933 24.6257C26.2924 24.684 26.2804 24.7432 26.2548 24.7997C26.238 24.8372 26.2155 24.8699 26.1907 24.8999C25.9392 25.5884 25.7364 26.3626 25.6144 27.2371C26.6137 26.6108 27.8742 26.5834 27.9463 26.5826H27.9516C28.1929 26.5826 28.3896 26.776 28.3931 27.018C28.3967 27.2618 28.2013 27.4619 27.9578 27.4658C27.9392 27.4663 26.1204 27.5087 25.5017 28.5629C25.4584 29.64 25.533 30.8426 25.7629 32.1807C25.7651 32.1909 25.7664 32.201 25.7677 32.2116C26.0771 33.9954 26.6588 36.0141 27.6227 38.3058L27.8331 38.7112C28.1575 38.5478 28.4369 38.3217 28.6362 38.0434C28.969 37.5788 29.0477 37.0153 28.8568 36.4566C28.0576 34.1138 28.0824 32.326 28.9301 31.1424C30.0289 29.6078 32.3175 29.3786 33.5833 29.3786C34.2352 29.3786 34.683 29.4386 34.6874 29.4395L35.1418 29.5013L35.1873 29.0456C35.1935 28.9855 35.3238 27.5626 34.4929 26.5958C34.4447 26.5397 34.3939 26.4867 34.3418 26.4359C34.5765 26.3834 34.8085 26.3088 35.0366 26.2125C36.6118 25.5487 37.6522 24.0639 37.6862 22.4308Z" fill="#28B446"/>
</svg>
